<svg width="94" height="97" viewBox="0 0 94 97" fill="none" xmlns="http://www.w3.org/2000/svg">
<path d="M11.1285 30.7907C23.0646 21.8515 36.9615 16.3654 51.6893 20.3607C64.9827 23.967 73.3521 35.2967 64.3887 49.3082C60.1456 55.9409 51.1115 60.5835 44.01 56.8053C36.0983 52.596 42.3342 41.972 47.399 38.9082C59.2285 31.7521 75.8791 35.0783 84.0688 48.9777C93.7673 65.4377 77.3647 73.6306 77.3535 73.497" stroke="black" stroke-width="2.40297" stroke-miterlimit="1.5" stroke-linecap="round" stroke-linejoin="round"/>
<path d="M13.7035 13.0725C14.1368 14.7967 13.8866 16.5229 13.7163 18.2607C13.1576 23.967 10.9206 29.8914 6.9068 33.634C12.1884 31.3182 19.7657 30.3097 24.5629 34.3747" stroke="black" stroke-width="2.40297" stroke-miterlimit="1.5" stroke-linecap="round" stroke-linejoin="round"/>
</svg>
