<svg width="86" height="285" viewBox="0 0 86 285" fill="none" xmlns="http://www.w3.org/2000/svg">
<g opacity="0.5">
<rect y="147.515" width="2.01956" height="2.02287" fill="black"/>
<rect x="13.4443" y="147.515" width="2.01956" height="2.02287" fill="black"/>
<rect x="26.8965" y="147.515" width="2.01956" height="2.02287" fill="black"/>
<rect x="40.3408" y="147.515" width="2.01956" height="2.02287" fill="black"/>
<rect x="53.7861" y="147.515" width="2.01956" height="2.02287" fill="black"/>
<rect x="67.2295" y="147.515" width="2.01956" height="2.02287" fill="black"/>
<rect x="80.6807" y="147.515" width="2.01956" height="2.02287" fill="black"/>
<rect y="160.981" width="2.01956" height="2.02287" fill="black"/>
<rect x="13.4443" y="160.981" width="2.01956" height="2.02287" fill="black"/>
<rect x="26.8965" y="160.981" width="2.01956" height="2.02287" fill="black"/>
<rect x="40.3408" y="160.981" width="2.01956" height="2.02287" fill="black"/>
<rect x="53.7861" y="160.981" width="2.01956" height="2.02287" fill="black"/>
<rect x="67.2295" y="160.981" width="2.01956" height="2.02287" fill="black"/>
<rect x="80.6807" y="160.981" width="2.01956" height="2.02287" fill="black"/>
<rect y="174.455" width="2.01956" height="2.02287" fill="black"/>
<rect x="13.4443" y="174.455" width="2.01956" height="2.02287" fill="black"/>
<rect x="26.8965" y="174.455" width="2.01956" height="2.02287" fill="black"/>
<rect x="40.3408" y="174.455" width="2.01956" height="2.02287" fill="black"/>
<rect x="53.7861" y="174.455" width="2.01956" height="2.02287" fill="black"/>
<rect x="67.2295" y="174.455" width="2.01956" height="2.02287" fill="black"/>
<rect x="80.6807" y="174.455" width="2.01956" height="2.02287" fill="black"/>
<rect y="187.921" width="2.01956" height="2.02287" fill="black"/>
<rect x="13.4443" y="187.921" width="2.01956" height="2.02287" fill="black"/>
<rect x="26.8965" y="187.921" width="2.01956" height="2.02287" fill="black"/>
<rect x="40.3408" y="187.921" width="2.01956" height="2.02287" fill="black"/>
<rect x="53.7861" y="187.921" width="2.01956" height="2.02287" fill="black"/>
<rect x="67.2295" y="187.921" width="2.01956" height="2.02287" fill="black"/>
<rect x="80.6807" y="187.921" width="2.01956" height="2.02287" fill="black"/>
<rect y="201.389" width="2.01956" height="2.02287" fill="black"/>
<rect x="13.4443" y="201.389" width="2.01956" height="2.02287" fill="black"/>
<rect x="26.8965" y="201.389" width="2.01956" height="2.02287" fill="black"/>
<rect x="40.3408" y="201.389" width="2.01956" height="2.02287" fill="black"/>
<rect x="53.7861" y="201.389" width="2.01956" height="2.02287" fill="black"/>
<rect x="67.2295" y="201.389" width="2.01956" height="2.02287" fill="black"/>
<rect x="80.6807" y="201.389" width="2.01956" height="2.02287" fill="black"/>
<rect y="214.857" width="2.01956" height="2.02287" fill="black"/>
<rect x="13.4443" y="214.857" width="2.01956" height="2.02287" fill="black"/>
<rect x="26.8965" y="214.857" width="2.01956" height="2.02287" fill="black"/>
<rect x="40.3408" y="214.857" width="2.01956" height="2.02287" fill="black"/>
<rect x="53.7861" y="214.857" width="2.01956" height="2.02287" fill="black"/>
<rect x="67.2295" y="214.857" width="2.01956" height="2.02287" fill="black"/>
<rect x="80.6807" y="214.857" width="2.01956" height="2.02287" fill="black"/>
<rect y="228.329" width="2.01956" height="2.02287" fill="black"/>
<rect x="13.4443" y="228.329" width="2.01956" height="2.02287" fill="black"/>
<rect x="26.8965" y="228.329" width="2.01956" height="2.02287" fill="black"/>
<rect x="40.3408" y="228.329" width="2.01956" height="2.02287" fill="black"/>
<rect x="53.7861" y="228.329" width="2.01956" height="2.02287" fill="black"/>
<rect x="67.2295" y="228.329" width="2.01956" height="2.02287" fill="black"/>
<rect x="80.6807" y="228.329" width="2.01956" height="2.02287" fill="black"/>
<rect y="241.795" width="2.01956" height="2.02287" fill="black"/>
<rect x="13.4443" y="241.797" width="2.01956" height="2.02287" fill="black"/>
<rect x="26.8965" y="241.797" width="2.01956" height="2.02287" fill="black"/>
<rect x="40.3408" y="241.797" width="2.01956" height="2.02287" fill="black"/>
<rect x="53.7861" y="241.797" width="2.01956" height="2.02287" fill="black"/>
<rect x="67.2295" y="241.797" width="2.01956" height="2.02287" fill="black"/>
<rect x="80.6807" y="241.797" width="2.01956" height="2.02287" fill="black"/>
<rect y="255.263" width="2.01956" height="2.02287" fill="black"/>
<rect x="13.4443" y="255.263" width="2.01956" height="2.02287" fill="black"/>
<rect x="26.8965" y="255.263" width="2.01956" height="2.02287" fill="black"/>
<rect x="40.3408" y="255.263" width="2.01956" height="2.02287" fill="black"/>
<rect x="53.7861" y="255.263" width="2.01956" height="2.02287" fill="black"/>
<rect x="67.2295" y="255.263" width="2.01956" height="2.02287" fill="black"/>
<rect x="80.6807" y="255.263" width="2.01956" height="2.02287" fill="black"/>
<rect y="268.729" width="2.01956" height="2.02287" fill="black"/>
<rect x="13.4443" y="268.729" width="2.01956" height="2.02287" fill="black"/>
<rect x="26.8965" y="268.729" width="2.01956" height="2.02287" fill="black"/>
<rect x="40.3408" y="268.729" width="2.01956" height="2.02287" fill="black"/>
<rect x="53.7861" y="268.729" width="2.01956" height="2.02287" fill="black"/>
<rect x="67.2295" y="268.729" width="2.01956" height="2.02287" fill="black"/>
<rect x="80.6807" y="268.729" width="2.01956" height="2.02287" fill="black"/>
<rect y="282.202" width="2.01956" height="2.02287" fill="black"/>
<rect x="13.4443" y="282.203" width="2.01956" height="2.02287" fill="black"/>
<rect x="26.8965" y="282.203" width="2.01956" height="2.02287" fill="black"/>
<rect x="40.3408" y="282.203" width="2.01956" height="2.02287" fill="black"/>
<rect x="53.7861" y="282.203" width="2.01956" height="2.02287" fill="black"/>
<rect x="67.2295" y="282.203" width="2.01956" height="2.02287" fill="black"/>
<rect x="80.6807" y="282.203" width="2.01956" height="2.02287" fill="black"/>
</g>
<g opacity="0.5">
<rect x="0.31543" width="2" height="2" fill="black"/>
<rect x="13.3154" width="2" height="2" fill="black"/>
<rect x="27.3154" width="2" height="2" fill="black"/>
<rect x="40.3154" width="2" height="2" fill="black"/>
<rect x="53.3154" width="2" height="2" fill="black"/>
<rect x="67.3154" width="2" height="2" fill="black"/>
<rect x="80.3154" width="2" height="2" fill="black"/>
<rect x="0.31543" y="13" width="2" height="2" fill="black"/>
<rect x="13.3154" y="13" width="2" height="2" fill="black"/>
<rect x="27.3154" y="13" width="2" height="2" fill="black"/>
<rect x="40.3154" y="13" width="2" height="2" fill="black"/>
<rect x="53.3154" y="13" width="2" height="2" fill="black"/>
<rect x="67.3154" y="13" width="2" height="2" fill="black"/>
<rect x="80.3154" y="13" width="2" height="2" fill="black"/>
<rect x="0.31543" y="27" width="2" height="2" fill="black"/>
<rect x="13.3154" y="27" width="2" height="2" fill="black"/>
<rect x="27.3154" y="27" width="2" height="2" fill="black"/>
<rect x="40.3154" y="27" width="2" height="2" fill="black"/>
<rect x="53.3154" y="27" width="2" height="2" fill="black"/>
<rect x="67.3154" y="27" width="2" height="2" fill="black"/>
<rect x="80.3154" y="27" width="2" height="2" fill="black"/>
<rect x="0.31543" y="40" width="2" height="2" fill="black"/>
<rect x="13.3154" y="40" width="2" height="2" fill="black"/>
<rect x="27.3154" y="40" width="2" height="2" fill="black"/>
<rect x="40.3154" y="40" width="2" height="2" fill="black"/>
<rect x="53.3154" y="40" width="2" height="2" fill="black"/>
<rect x="67.3154" y="40" width="2" height="2" fill="black"/>
<rect x="80.3154" y="40" width="2" height="2" fill="black"/>
<rect x="0.31543" y="54" width="2" height="2" fill="black"/>
<rect x="13.3154" y="54" width="2" height="2" fill="black"/>
<rect x="27.3154" y="54" width="2" height="2" fill="black"/>
<rect x="40.3154" y="54" width="2" height="2" fill="black"/>
<rect x="53.3154" y="54" width="2" height="2" fill="black"/>
<rect x="67.3154" y="54" width="2" height="2" fill="black"/>
<rect x="80.3154" y="54" width="2" height="2" fill="black"/>
<rect x="0.31543" y="67" width="2" height="2" fill="black"/>
<rect x="13.3154" y="67" width="2" height="2" fill="black"/>
<rect x="27.3154" y="67" width="2" height="2" fill="black"/>
<rect x="40.3154" y="67" width="2" height="2" fill="black"/>
<rect x="53.3154" y="67" width="2" height="2" fill="black"/>
<rect x="67.3154" y="67" width="2" height="2" fill="black"/>
<rect x="80.3154" y="67" width="2" height="2" fill="black"/>
<rect x="0.31543" y="81" width="2" height="2" fill="black"/>
<rect x="13.3154" y="81" width="2" height="2" fill="black"/>
<rect x="27.3154" y="81" width="2" height="2" fill="black"/>
<rect x="40.3154" y="81" width="2" height="2" fill="black"/>
<rect x="53.3154" y="81" width="2" height="2" fill="black"/>
<rect x="67.3154" y="81" width="2" height="2" fill="black"/>
<rect x="80.3154" y="81" width="2" height="2" fill="black"/>
<rect x="0.31543" y="94" width="2" height="2" fill="black"/>
<rect x="13.3154" y="94" width="2" height="2" fill="black"/>
<rect x="27.3154" y="94" width="2" height="2" fill="black"/>
<rect x="40.3154" y="94" width="2" height="2" fill="black"/>
<rect x="53.3154" y="94" width="2" height="2" fill="black"/>
<rect x="67.3154" y="94" width="2" height="2" fill="black"/>
<rect x="80.3154" y="94" width="2" height="2" fill="black"/>
<rect x="0.31543" y="108" width="2" height="2" fill="black"/>
<rect x="13.3154" y="108" width="2" height="2" fill="black"/>
<rect x="27.3154" y="108" width="2" height="2" fill="black"/>
<rect x="40.3154" y="108" width="2" height="2" fill="black"/>
<rect x="53.3154" y="108" width="2" height="2" fill="black"/>
<rect x="67.3154" y="108" width="2" height="2" fill="black"/>
<rect x="80.3154" y="108" width="2" height="2" fill="black"/>
<rect x="0.31543" y="121" width="2" height="2" fill="black"/>
<rect x="13.3154" y="121" width="2" height="2" fill="black"/>
<rect x="27.3154" y="121" width="2" height="2" fill="black"/>
<rect x="40.3154" y="121" width="2" height="2" fill="black"/>
<rect x="53.3154" y="121" width="2" height="2" fill="black"/>
<rect x="67.3154" y="121" width="2" height="2" fill="black"/>
<rect x="80.3154" y="121" width="2" height="2" fill="black"/>
<rect x="0.31543" y="135" width="2" height="2" fill="black"/>
<rect x="13.3154" y="135" width="2" height="2" fill="black"/>
<rect x="27.3154" y="135" width="2" height="2" fill="black"/>
<rect x="40.3154" y="135" width="2" height="2" fill="black"/>
<rect x="53.3154" y="135" width="2" height="2" fill="black"/>
<rect x="67.3154" y="135" width="2" height="2" fill="black"/>
<rect x="80.3154" y="135" width="2" height="2" fill="black"/>
</g>
</svg>
